<svg width="132" height="40" viewBox="0 0 132 40" fill="none" xmlns="http://www.w3.org/2000/svg">
<path d="M16.7672 33C24.3368 33 30.4733 26.9558 30.4733 19.5C30.4733 12.0442 24.3368 6 16.7672 6C9.1975 6 3.06107 12.0442 3.06107 19.5C3.06107 26.9558 9.1975 33 16.7672 33Z" fill="url(#paint0_linear_1_4)"/>
<path d="M9.58781 15.1351C13.8305 14.0893 18.0633 13.046 22.3064 12C22.529 12.848 22.7494 13.6879 22.9723 14.5371C19.6593 15.3537 16.3516 16.1692 13.0441 16.9846C13.0448 16.9898 13.0454 16.9949 13.0462 17.0001H23.288C23.2898 17.037 23.2927 17.0668 23.2927 17.0969C23.2929 19.2878 23.294 21.4789 23.2923 23.6698C23.2913 24.8933 22.2671 25.9325 21.0104 25.9896C20.888 25.9952 20.7654 25.9986 20.6429 25.9986C17.9684 25.9992 15.294 25.9995 12.6198 25.9986C11.9514 25.9984 11.3674 25.7789 10.8902 25.3255C10.4559 24.9126 10.21 24.4063 10.1723 23.8126C10.1648 23.6941 10.1625 23.5752 10.1625 23.4565C10.1618 21.5189 10.1609 19.5814 10.1638 17.644C10.1642 17.4423 10.1413 17.2479 10.088 17.0522C9.92092 16.4395 9.76396 15.8244 9.60325 15.21C9.59787 15.1894 9.59462 15.1682 9.58781 15.1351ZM10.7821 19.6276V19.7292C10.7821 21.0375 10.7819 22.3459 10.7829 23.6541C10.7829 23.7256 10.7893 23.7977 10.8002 23.8685C10.9412 24.7735 11.6912 25.3983 12.6355 25.3983C15.342 25.3983 18.0486 25.3983 20.7552 25.398C20.8294 25.398 20.9036 25.3946 20.9774 25.3893C21.9433 25.3211 22.6727 24.5605 22.6727 23.621C22.6727 22.3282 22.6727 21.0357 22.6727 19.7429V19.6276H10.7821ZM12.6762 17.6036C12.6966 17.6357 12.7085 17.6568 12.7226 17.6763C13.027 18.1019 13.3326 18.5267 13.6348 18.9539C13.6701 19.0038 13.7047 19.0237 13.7674 19.0232C14.1319 19.0203 14.4965 19.0218 14.861 19.0215C14.8885 19.0215 14.9161 19.0177 14.9471 19.0153C14.9403 18.998 14.9388 18.9882 14.9335 18.9809C14.6172 18.5369 14.3015 18.0923 13.9819 17.6504C13.9629 17.6241 13.9137 17.6062 13.878 17.6053C13.6813 17.601 13.4844 17.6032 13.2877 17.6032C13.0889 17.6032 12.89 17.6036 12.6762 17.6036ZM17.8872 19.0218C17.865 18.9858 17.8531 18.9638 17.8388 18.9437C17.5339 18.5175 17.2277 18.0923 16.9247 17.6648C16.8908 17.6171 16.8558 17.6021 16.7984 17.6023C16.4302 17.6046 16.0619 17.6034 15.6936 17.6036C15.6697 17.6036 15.6456 17.6059 15.61 17.6077C15.6272 17.634 15.6367 17.6494 15.6469 17.6639C15.927 18.0572 16.2154 18.4452 16.4833 18.8462C16.5792 18.9897 16.684 19.032 16.8523 19.0256C17.1904 19.0126 17.5296 19.0218 17.8872 19.0218ZM18.5381 17.6036C18.5592 17.6367 18.571 17.6575 18.5848 17.6771C18.8897 18.103 19.1959 18.5281 19.4982 18.9555C19.5341 19.0064 19.5707 19.0235 19.632 19.023C19.9936 19.0205 20.3552 19.0218 20.7169 19.0215C20.745 19.0215 20.7729 19.0181 20.8094 19.0158C20.7987 18.9946 20.7936 18.9803 20.7853 18.9685C20.4723 18.529 20.1597 18.0893 19.8436 17.6519C19.8245 17.6256 19.7765 17.6062 19.7416 17.6055C19.532 17.6012 19.3219 17.6034 19.1119 17.6034C18.9259 17.6034 18.7398 17.6036 18.5381 17.6036ZM20.4185 14.5442C20.3975 14.5228 20.3895 14.513 20.3801 14.505C19.9628 14.1524 19.5459 13.7993 19.1267 13.4488C19.1055 13.4312 19.0622 13.4237 19.0341 13.4304C18.659 13.52 18.2848 13.6132 17.9103 13.7056C17.8966 13.709 17.884 13.7159 17.8486 13.7298C17.8787 13.749 17.8962 13.7576 17.9105 13.7696C18.2679 14.07 18.6324 14.3632 18.9786 14.6753C19.1226 14.8051 19.2486 14.8502 19.4426 14.7906C19.7577 14.6937 20.0829 14.6272 20.4185 14.5442ZM14.7352 15.9453C14.72 15.9258 14.7141 15.9147 14.7053 15.907C14.2947 15.562 13.8829 15.2185 13.4749 14.8708C13.4241 14.8276 13.3846 14.8209 13.3218 14.837C13.0169 14.9153 12.7105 14.9878 12.4049 15.0628C12.3343 15.0801 12.2644 15.099 12.1754 15.1221C12.2757 15.2072 12.3622 15.2803 12.4484 15.3533C12.7804 15.6341 13.1117 15.9157 13.4458 16.194C13.4749 16.2183 13.5275 16.2395 13.5614 16.2316C13.949 16.1407 14.3352 16.044 14.7352 15.9453ZM15.0271 14.4169C15.0378 14.4366 15.0394 14.4435 15.0439 14.4471C15.4631 14.8019 15.8817 15.1573 16.3038 15.5089C16.3309 15.5314 16.3883 15.5365 16.426 15.5276C16.7796 15.4442 17.1318 15.3562 17.4843 15.269C17.5134 15.2619 17.5415 15.2517 17.5823 15.2393C17.1651 14.8874 16.7575 14.5485 16.3571 14.2022C16.2727 14.1293 16.1987 14.1147 16.0981 14.1511C16.0294 14.1761 15.9552 14.187 15.8834 14.2048C15.6004 14.2749 15.3175 14.3447 15.0271 14.4169ZM10.7867 19.0162H12.0106C12.0098 19.0048 12.0116 18.9974 12.0087 18.9933C11.687 18.5418 11.3652 18.0903 11.0418 17.6397C11.0294 17.6224 11.0028 17.6068 10.9817 17.6053C10.9185 17.6008 10.8548 17.6036 10.7869 17.6036L10.7867 19.0162ZM10.6991 16.9402C11.1023 16.8407 11.4959 16.7436 11.9151 16.6401C11.8791 16.6142 11.8601 16.6025 11.8432 16.5883C11.4567 16.2639 11.0704 15.9393 10.6844 15.6146C10.5555 15.5062 10.5092 15.5015 10.3433 15.5868C10.4611 16.0348 10.5791 16.4838 10.6991 16.9402ZM21.4667 17.607C21.7831 18.0493 22.0938 18.4745 22.3923 18.9076C22.4667 19.0156 22.5465 19.0427 22.6665 19.011V17.6068L21.4667 17.607ZM21.8563 12.7325C21.4682 12.8287 21.091 12.922 20.7136 13.0154L20.7047 13.042C20.7213 13.052 20.7396 13.0601 20.7541 13.0723C21.1381 13.3944 21.5255 13.7125 21.9025 14.042C22.0021 14.1289 22.0872 14.1609 22.2124 14.0891C22.0947 13.6408 21.9763 13.1893 21.8563 12.7325Z" fill="white"/>
<path d="M15.6454 20.7748C15.6658 20.7842 15.6951 20.7953 15.7222 20.8103C16.5371 21.2656 17.352 21.7212 18.1667 22.1767C18.3147 22.2593 18.4625 22.3421 18.6102 22.4252C18.7218 22.4881 18.7222 22.572 18.6092 22.6353C17.7808 23.0994 16.9521 23.5628 16.1236 24.0263C15.9896 24.1013 15.8561 24.1768 15.7214 24.2506C15.6059 24.3139 15.5313 24.2744 15.5313 24.148C15.5307 23.0681 15.5313 21.9881 15.5305 20.9081C15.5305 20.8371 15.5516 20.7859 15.6454 20.7748Z" fill="white"/>
<path d="M44.9793 27H40.9767L37.4427 12.1547H41.6607L42.332 17.272L43.3327 22.2373L44.612 17.272L44.9413 15.9167L43.966 12.1547H48.108L49.02 17.272L50.1347 22.2373L50.8313 17.272L51.5787 12.1547H55.4293L52.1613 27H47.842L46.284 21.034L44.9793 27ZM61.3077 25.8727L61.181 26.012C61.0965 26.1133 60.9657 26.2316 60.7883 26.3667C60.6194 26.5018 60.421 26.6369 60.193 26.772C59.9734 26.9071 59.7032 27.0211 59.3823 27.114C59.0614 27.2153 58.7321 27.266 58.3943 27.266C56.1143 27.266 54.9743 26.1387 54.9743 23.884C54.9743 23.4449 55.0545 23.0438 55.215 22.6807C55.3754 22.3091 55.5823 21.9967 55.8357 21.7433C56.089 21.49 56.393 21.2662 56.7477 21.072C57.1023 20.8693 57.457 20.7131 57.8117 20.6033C58.1748 20.4851 58.5548 20.388 58.9517 20.312C59.3485 20.236 59.7032 20.1853 60.0157 20.16C60.3281 20.1347 60.6279 20.122 60.915 20.122V19.894C60.915 19.3789 60.7757 19.0158 60.497 18.8047C60.2268 18.5936 59.7877 18.488 59.1797 18.488C58.6561 18.488 58.1114 18.5513 57.5457 18.678C56.9799 18.7962 56.5365 18.9398 56.2157 19.1087L55.405 17.386C55.9792 17.0144 56.7265 16.6893 57.647 16.4107C58.5674 16.1236 59.5048 15.98 60.459 15.98C61.3034 15.98 62.0001 16.0644 62.549 16.2333C63.0979 16.3938 63.5412 16.6724 63.879 17.0693C64.2252 17.4578 64.4701 17.956 64.6137 18.564C64.7572 19.1636 64.829 19.9278 64.829 20.8567V26.012L65.1837 27H61.713L61.3077 25.8727ZM60.307 25.0367C60.4168 25.0367 60.5181 25.0156 60.611 24.9733C60.7123 24.9227 60.7883 24.8762 60.839 24.834C60.8897 24.7833 60.915 24.758 60.915 24.758V21.718C60.3999 21.718 59.9903 21.8616 59.6863 22.1487C59.3823 22.4273 59.2303 22.8622 59.2303 23.4533C59.2303 24.5089 59.5892 25.0367 60.307 25.0367ZM69.4129 27.266C68.2729 27.266 67.4749 26.924 67.0189 26.24C66.5714 25.556 66.3476 24.3991 66.3476 22.7693V18.4627H65.4736V16.702L66.9683 16.2333L68.2603 13.282H70.4896V16.2333H72.5669V18.4627H70.4516V23.1747C70.4516 23.8502 70.5487 24.2978 70.7429 24.5173C70.9372 24.7369 71.2369 24.8467 71.6423 24.8467C71.8196 24.8467 71.98 24.8256 72.1236 24.7833C72.2672 24.7411 72.3854 24.682 72.4783 24.606V26.3287C72.3516 26.4553 72.1869 26.582 71.9843 26.7087C71.7816 26.8269 71.4438 26.9493 70.9709 27.076C70.5065 27.2027 69.9872 27.266 69.4129 27.266ZM82.1593 25.9487L82.0453 26.088C81.9693 26.1724 81.8342 26.2822 81.6399 26.4173C81.4542 26.544 81.2262 26.6749 80.9559 26.81C80.6942 26.9367 80.3395 27.0422 79.8919 27.1267C79.4528 27.2196 78.9799 27.266 78.4733 27.266C76.759 27.266 75.4459 26.7636 74.5339 25.7587C73.6304 24.7538 73.1786 23.4238 73.1786 21.7687C73.1786 20.8736 73.3179 20.0587 73.5966 19.324C73.8753 18.5893 74.2553 17.9813 74.7366 17.5C75.2264 17.0102 75.7964 16.6344 76.4466 16.3727C77.1053 16.1024 77.8146 15.9673 78.5746 15.9673C80.0439 15.9673 81.1839 16.3178 81.9946 17.0187C82.1719 17.196 82.2606 17.2847 82.2606 17.2847L82.0706 20.2613L80.2719 20.274L79.5499 18.336C79.4824 18.3191 79.3895 18.3107 79.2713 18.3107C78.5028 18.3107 77.9708 18.5767 77.6753 19.1087C77.3882 19.6322 77.2446 20.5442 77.2446 21.8447C77.2446 22.4104 77.291 22.896 77.3839 23.3013C77.4768 23.6982 77.5824 23.998 77.7006 24.2007C77.8188 24.3949 77.975 24.5469 78.1693 24.6567C78.3719 24.7664 78.5366 24.8298 78.6633 24.8467C78.7899 24.8636 78.9462 24.872 79.1319 24.872C79.5542 24.872 79.9848 24.8213 80.4239 24.72C80.8715 24.6187 81.2388 24.454 81.5259 24.226L82.1593 25.9487ZM87.4459 27H83.3419V12.674L82.5819 12.218V11.04L86.6479 10.4067H87.4712V17.8673L87.6233 17.6773C87.7246 17.5422 87.8724 17.3818 88.0666 17.196C88.2692 17.0102 88.493 16.8287 88.7379 16.6513C88.9828 16.4656 89.2741 16.3093 89.6119 16.1827C89.9581 16.0476 90.2959 15.98 90.6252 15.98C91.7821 15.98 92.597 16.2967 93.0699 16.93C93.5513 17.5633 93.7919 18.6231 93.7919 20.1093C93.7919 20.16 93.7919 20.236 93.7919 20.3373C93.7835 20.4387 93.7793 20.5189 93.7793 20.578V27H89.5993V20.2107C89.6246 19.4169 89.2868 19.02 88.5859 19.02C88.5184 19.02 88.4508 19.0242 88.3832 19.0327C88.3241 19.0411 88.2608 19.0622 88.1933 19.096C88.1257 19.1298 88.0708 19.1551 88.0286 19.172C87.9948 19.1889 87.9399 19.2227 87.8639 19.2733C87.7964 19.324 87.7499 19.3578 87.7246 19.3747C87.7077 19.3916 87.657 19.4338 87.5726 19.5013C87.4966 19.5689 87.4544 19.6069 87.4459 19.6153V27ZM101.044 20.4513C101.044 19.3789 100.99 18.6189 100.88 18.1713C100.77 17.7238 100.567 17.5 100.272 17.5C100.018 17.5 99.8116 17.5464 99.6511 17.6393C99.4907 17.7238 99.3725 17.8631 99.2965 18.0573C99.2205 18.2431 99.1698 18.4373 99.1445 18.64C99.1276 18.8342 99.1191 19.0833 99.1191 19.3873V20.4513H101.044ZM100.031 27.266C99.0854 27.266 98.262 27.1224 97.5611 26.8353C96.8687 26.5482 96.3198 26.1471 95.9145 25.632C95.5176 25.1169 95.2263 24.5384 95.0405 23.8967C94.8547 23.2464 94.7618 22.5244 94.7618 21.7307C94.7618 19.8391 95.2431 18.4078 96.2058 17.4367C97.1685 16.4656 98.5154 15.98 100.246 15.98C101.91 15.98 103.101 16.3727 103.818 17.158C104.536 17.9349 104.895 19.1889 104.895 20.92V22.326H99.1065V22.5667C99.1065 23.0649 99.1571 23.4744 99.2585 23.7953C99.3683 24.1162 99.5245 24.3527 99.7271 24.5047C99.9298 24.6567 100.137 24.758 100.348 24.8087C100.559 24.8593 100.816 24.8847 101.12 24.8847C101.416 24.8847 101.733 24.8467 102.07 24.7707C102.417 24.6947 102.763 24.5764 103.109 24.416C103.464 24.2556 103.759 24.0656 103.996 23.846L104.743 25.1253C104.431 25.632 103.97 26.0584 103.362 26.4047C102.763 26.7424 102.184 26.9704 101.627 27.0887C101.07 27.2069 100.538 27.266 100.031 27.266ZM110.359 27H106.267V18.8047L105.507 18.336V16.9047L108.231 16.2333H109.257L109.624 19.248C109.97 17.1791 111.081 16.1447 112.955 16.1447C113.166 16.1447 113.386 16.1827 113.614 16.2587L113.183 20.768C113.006 20.6076 112.618 20.5273 112.018 20.5273C111.157 20.5273 110.604 20.7553 110.359 21.2113V27Z" fill="url(#paint1_linear_1_4)"/>
<defs>
<linearGradient id="paint0_linear_1_4" x1="3.73959" y1="24.1098" x2="33.5316" y2="13.711" gradientUnits="userSpaceOnUse">
<stop stop-color="#F89E00"/>
<stop offset="1" stop-color="#DA2F68"/>
</linearGradient>
<linearGradient id="paint1_linear_1_4" x1="38" y1="19.6216" x2="124.026" y2="17.3447" gradientUnits="userSpaceOnUse">
<stop stop-color="#F89E00"/>
<stop offset="0.953753" stop-color="#DA2F68"/>
</linearGradient>
</defs>
</svg>
